<mxfile host="Electron" modified="2024-03-20T23:37:58.017Z" agent="Mozilla/5.0 (Windows NT 10.0; Win64; x64) AppleWebKit/537.36 (KHTML, like Gecko) draw.io/24.0.4 Chrome/120.0.6099.109 Electron/28.1.0 Safari/537.36" etag="2Eh7DkeE9jV716YVP4px" version="24.0.4" type="device">
  <diagram name="Página-1" id="7Xcef_HzvBkLTYJudTr0">
    <mxGraphModel dx="281" dy="647" grid="1" gridSize="10" guides="1" tooltips="1" connect="1" arrows="1" fold="1" page="1" pageScale="1" pageWidth="827" pageHeight="1169" math="0" shadow="0">
      <root>
        <mxCell id="0" />
        <mxCell id="1" parent="0" />
        <mxCell id="aaUzxXLTJTFCTYm2-9h8-1" value="Recrutador&lt;div&gt;&lt;br&gt;&lt;/div&gt;" style="shape=umlActor;verticalLabelPosition=bottom;verticalAlign=top;html=1;outlineConnect=0;" vertex="1" parent="1">
          <mxGeometry x="160" y="240" width="40" height="80" as="geometry" />
        </mxCell>
        <mxCell id="aaUzxXLTJTFCTYm2-9h8-3" value="Gestor" style="shape=umlActor;verticalLabelPosition=bottom;verticalAlign=top;html=1;outlineConnect=0;" vertex="1" parent="1">
          <mxGeometry x="160" y="480" width="40" height="80" as="geometry" />
        </mxCell>
        <mxCell id="aaUzxXLTJTFCTYm2-9h8-5" value="Candidato" style="shape=umlActor;verticalLabelPosition=bottom;verticalAlign=top;html=1;outlineConnect=0;" vertex="1" parent="1">
          <mxGeometry x="160" y="360" width="40" height="80" as="geometry" />
        </mxCell>
        <mxCell id="aaUzxXLTJTFCTYm2-9h8-6" value="" style="rounded=0;whiteSpace=wrap;html=1;" vertex="1" parent="1">
          <mxGeometry x="240" y="160" width="280" height="520" as="geometry" />
        </mxCell>
        <mxCell id="aaUzxXLTJTFCTYm2-9h8-7" value="Cadastrar Vaga" style="ellipse;whiteSpace=wrap;html=1;" vertex="1" parent="1">
          <mxGeometry x="330" y="210" width="100" height="50" as="geometry" />
        </mxCell>
        <mxCell id="aaUzxXLTJTFCTYm2-9h8-9" value="Revisar candidaturas" style="ellipse;whiteSpace=wrap;html=1;" vertex="1" parent="1">
          <mxGeometry x="330" y="270" width="100" height="50" as="geometry" />
        </mxCell>
        <mxCell id="aaUzxXLTJTFCTYm2-9h8-10" value="Selecionar candidatos" style="ellipse;whiteSpace=wrap;html=1;" vertex="1" parent="1">
          <mxGeometry x="330" y="330" width="100" height="50" as="geometry" />
        </mxCell>
        <mxCell id="aaUzxXLTJTFCTYm2-9h8-11" value="Indicar vaga aberta" style="ellipse;whiteSpace=wrap;html=1;" vertex="1" parent="1">
          <mxGeometry x="330" y="510" width="100" height="50" as="geometry" />
        </mxCell>
        <mxCell id="aaUzxXLTJTFCTYm2-9h8-12" value="Enviar candidatura" style="ellipse;whiteSpace=wrap;html=1;" vertex="1" parent="1">
          <mxGeometry x="330" y="450" width="100" height="50" as="geometry" />
        </mxCell>
        <mxCell id="aaUzxXLTJTFCTYm2-9h8-13" value="Especificar características desejadas" style="ellipse;whiteSpace=wrap;html=1;" vertex="1" parent="1">
          <mxGeometry x="330" y="570" width="100" height="50" as="geometry" />
        </mxCell>
        <mxCell id="aaUzxXLTJTFCTYm2-9h8-14" value="Visualizar status" style="ellipse;whiteSpace=wrap;html=1;" vertex="1" parent="1">
          <mxGeometry x="330" y="390" width="100" height="50" as="geometry" />
        </mxCell>
        <mxCell id="aaUzxXLTJTFCTYm2-9h8-15" style="edgeStyle=orthogonalEdgeStyle;rounded=0;orthogonalLoop=1;jettySize=auto;html=1;exitX=0.5;exitY=1;exitDx=0;exitDy=0;" edge="1" parent="1" source="aaUzxXLTJTFCTYm2-9h8-9" target="aaUzxXLTJTFCTYm2-9h8-9">
          <mxGeometry relative="1" as="geometry" />
        </mxCell>
        <mxCell id="aaUzxXLTJTFCTYm2-9h8-16" style="rounded=0;orthogonalLoop=1;jettySize=auto;html=1;exitX=0.5;exitY=0.5;exitDx=0;exitDy=0;exitPerimeter=0;entryX=0;entryY=0.5;entryDx=0;entryDy=0;endArrow=none;endFill=0;" edge="1" parent="1" source="aaUzxXLTJTFCTYm2-9h8-1" target="aaUzxXLTJTFCTYm2-9h8-7">
          <mxGeometry relative="1" as="geometry" />
        </mxCell>
        <mxCell id="aaUzxXLTJTFCTYm2-9h8-18" style="rounded=0;orthogonalLoop=1;jettySize=auto;html=1;exitX=0.5;exitY=0.5;exitDx=0;exitDy=0;exitPerimeter=0;entryX=0;entryY=0.5;entryDx=0;entryDy=0;endArrow=none;endFill=0;" edge="1" parent="1" source="aaUzxXLTJTFCTYm2-9h8-1" target="aaUzxXLTJTFCTYm2-9h8-10">
          <mxGeometry relative="1" as="geometry" />
        </mxCell>
        <mxCell id="aaUzxXLTJTFCTYm2-9h8-17" style="rounded=0;orthogonalLoop=1;jettySize=auto;html=1;exitX=0.5;exitY=0.5;exitDx=0;exitDy=0;exitPerimeter=0;entryX=0;entryY=0.5;entryDx=0;entryDy=0;endArrow=none;endFill=0;" edge="1" parent="1" source="aaUzxXLTJTFCTYm2-9h8-1" target="aaUzxXLTJTFCTYm2-9h8-9">
          <mxGeometry relative="1" as="geometry" />
        </mxCell>
        <mxCell id="aaUzxXLTJTFCTYm2-9h8-21" style="rounded=0;orthogonalLoop=1;jettySize=auto;html=1;exitX=0.5;exitY=0.5;exitDx=0;exitDy=0;exitPerimeter=0;entryX=0;entryY=0.5;entryDx=0;entryDy=0;endArrow=none;endFill=0;" edge="1" parent="1" source="aaUzxXLTJTFCTYm2-9h8-5" target="aaUzxXLTJTFCTYm2-9h8-12">
          <mxGeometry relative="1" as="geometry" />
        </mxCell>
        <mxCell id="aaUzxXLTJTFCTYm2-9h8-20" style="rounded=0;orthogonalLoop=1;jettySize=auto;html=1;exitX=0.5;exitY=0.5;exitDx=0;exitDy=0;exitPerimeter=0;entryX=0;entryY=0.5;entryDx=0;entryDy=0;endArrow=none;endFill=0;" edge="1" parent="1" source="aaUzxXLTJTFCTYm2-9h8-5" target="aaUzxXLTJTFCTYm2-9h8-14">
          <mxGeometry relative="1" as="geometry" />
        </mxCell>
        <mxCell id="aaUzxXLTJTFCTYm2-9h8-22" style="rounded=0;orthogonalLoop=1;jettySize=auto;html=1;exitX=0.5;exitY=0.5;exitDx=0;exitDy=0;exitPerimeter=0;entryX=0;entryY=0.5;entryDx=0;entryDy=0;endArrow=none;endFill=0;" edge="1" parent="1" source="aaUzxXLTJTFCTYm2-9h8-3" target="aaUzxXLTJTFCTYm2-9h8-11">
          <mxGeometry relative="1" as="geometry" />
        </mxCell>
        <mxCell id="aaUzxXLTJTFCTYm2-9h8-24" style="rounded=0;orthogonalLoop=1;jettySize=auto;html=1;exitX=0;exitY=0.5;exitDx=0;exitDy=0;entryX=0.5;entryY=0.5;entryDx=0;entryDy=0;entryPerimeter=0;endArrow=none;endFill=0;" edge="1" parent="1" source="aaUzxXLTJTFCTYm2-9h8-13" target="aaUzxXLTJTFCTYm2-9h8-3">
          <mxGeometry relative="1" as="geometry" />
        </mxCell>
      </root>
    </mxGraphModel>
  </diagram>
</mxfile>
